<svg width="16" height="15" viewBox="0 0 16 15" fill="none" xmlns="http://www.w3.org/2000/svg">
<path d="M15.4692 9.28928V14.8235H12.2607V9.65978C12.2607 8.36228 11.7965 7.47728 10.6355 7.47728C9.749 7.47728 9.221 8.07428 8.98925 8.65103C8.9045 8.85728 8.88275 9.14453 8.88275 9.43328V14.8235H5.67275C5.67275 14.8235 5.71625 6.07853 5.67275 5.17178H8.88275V6.53978L8.86175 6.57128H8.88275V6.53978C9.30875 5.88353 10.07 4.94528 11.7747 4.94528C13.886 4.94528 15.4692 6.32528 15.4692 9.28928ZM2.31575 0.519531C1.2185 0.519531 0.5 1.23953 0.5 2.18678C0.5 3.11303 1.1975 3.85478 2.27375 3.85478H2.29475C3.4145 3.85478 4.10975 3.11303 4.10975 2.18678C4.09025 1.23953 3.41525 0.519531 2.3165 0.519531H2.31575ZM0.6905 14.8235H3.899V5.17178H0.6905V14.8235Z" fill="white"/>
</svg>
