<svg width="14" height="14" viewbox="0 0 14 14" fill="none" xmlns="http://www.w3.org/2000/svg">
<path d="M4 0.25C3.00544 0.25 2.05161 0.645088 1.34835 1.34835C0.645088 2.05161 0.25 3.00544 0.25 4V10C0.25 10.9946 0.645088 11.9484 1.34835 12.6517C2.05161 13.3549 3.00544 13.75 4 13.75H10C10.9946 13.75 11.9484 13.3549 12.6517 12.6517C13.3549 11.9484 13.75 10.9946 13.75 10V4C13.75 3.00544 13.3549 2.05161 12.6517 1.34835C11.9484 0.645088 10.9946 0.25 10 0.25H4ZM11.5 1.75C11.9125 1.75 12.25 2.0875 12.25 2.5C12.25 2.9125 11.9125 3.25 11.5 3.25C11.0875 3.25 10.75 2.9125 10.75 2.5C10.75 2.0875 11.0875 1.75 11.5 1.75ZM7 3.25C7.99456 3.25 8.94839 3.64509 9.65165 4.34835C10.3549 5.05161 10.75 6.00544 10.75 7C10.75 7.99456 10.3549 8.94839 9.65165 9.65165C8.94839 10.3549 7.99456 10.75 7 10.75C6.00544 10.75 5.05161 10.3549 4.34835 9.65165C3.64509 8.94839 3.25 7.99456 3.25 7C3.25 6.00544 3.64509 5.05161 4.34835 4.34835C5.05161 3.64509 6.00544 3.25 7 3.25ZM7 4.75C6.70443 4.7501 6.41177 4.80841 6.13873 4.92161C5.8657 5.03482 5.61763 5.20069 5.4087 5.40976C5.19977 5.61883 5.03406 5.86701 4.92104 6.14012C4.80802 6.41323 4.7499 6.70593 4.75 7.0015C4.7501 7.29707 4.80841 7.58973 4.92161 7.86277C5.03482 8.1358 5.20069 8.38387 5.40976 8.5928C5.61883 8.80173 5.86701 8.96744 6.14012 9.08046C6.41323 9.19348 6.70593 9.2516 7.0015 9.2515C7.59844 9.2513 8.17084 9.01398 8.5928 8.59174C9.01476 8.1695 9.2517 7.59694 9.2515 7C9.2513 6.40306 9.01398 5.83066 8.59174 5.4087C8.1695 4.98674 7.59694 4.7498 7 4.75Z" fill="white"/>
</svg>
