<svg width="16" height="13" viewBox="0 0 16 13" fill="none" xmlns="http://www.w3.org/2000/svg">
<path d="M15.5 2.18025C14.9378 2.42578 14.3423 2.58678 13.733 2.658C14.3726 2.28243 14.8535 1.68683 15.086 0.982501C14.48 1.33525 13.8191 1.5837 13.1307 1.7175C12.8409 1.41391 12.4923 1.17254 12.1061 1.00813C11.7199 0.843728 11.3042 0.759725 10.8845 0.761251C9.185 0.761251 7.80725 2.11875 7.80725 3.79125C7.80725 4.02825 7.83425 4.26 7.88675 4.48125C6.66768 4.42327 5.47409 4.11181 4.38213 3.56673C3.29016 3.02165 2.32382 2.25494 1.54475 1.3155C1.27162 1.7763 1.12806 2.30234 1.12925 2.838C1.12925 3.89025 1.67225 4.818 2.49725 5.36025C2.00936 5.3445 1.53202 5.21424 1.10375 4.98V5.0175C1.10375 6.486 2.165 7.71075 3.57125 7.98975C3.30696 8.05988 3.03469 8.09542 2.76125 8.0955C2.5625 8.0955 2.36975 8.07675 2.1815 8.03925C2.38256 8.64519 2.76733 9.17349 3.28236 9.55076C3.7974 9.92803 4.41713 10.1355 5.0555 10.1445C3.96055 10.9879 2.61636 11.4435 1.23425 11.4398C0.98525 11.4398 0.74075 11.4248 0.5 11.3978C1.91094 12.2908 3.54694 12.7637 5.21675 12.7613C10.877 12.7613 13.9715 8.1435 13.9715 4.13925L13.961 3.747C14.5646 3.32225 15.0861 2.79139 15.5 2.18025Z" fill="white"/>
</svg>
