<svg width="18" height="13" viewBox="0 0 18 13" fill="none" xmlns="http://www.w3.org/2000/svg">
<path d="M17.235 1.22864C16.7467 0.333818 16.2169 0.169227 15.138 0.106636C14.0603 0.0312955 11.3501 0 9.00225 0C6.64987 0 3.93862 0.0312955 2.862 0.105477C1.78537 0.169227 1.25437 0.332659 0.761625 1.22864C0.25875 2.1223 0 3.66157 0 6.37152C0 6.37384 0 6.375 0 6.375C0 6.37732 0 6.37848 0 6.37848V6.3808C0 9.07916 0.25875 10.63 0.761625 11.5144C1.25437 12.4092 1.78425 12.5715 2.86087 12.6468C3.93863 12.7118 6.64987 12.75 9.00225 12.75C11.3501 12.75 14.0602 12.7117 15.1391 12.648C16.218 12.5727 16.7479 12.4104 17.2361 11.5156C17.7435 10.6312 18 9.08032 18 6.38195C18 6.38195 18 6.37848 18 6.37616C18 6.37616 18 6.37384 18 6.37268C18 3.66157 17.7435 2.1223 17.235 1.22864ZM6.75 9.85227V2.89773L12.375 6.375L6.75 9.85227Z" fill="white"/>
</svg>
